<?xml version="1.0" encoding="UTF-8" ?>
<!DOCTYPE svg PUBLIC "-//W3C//DTD SVG 1.1//EN" "http://www.w3.org/Graphics/SVG/1.1/DTD/svg11.dtd">
<svg width="512pt" height="512pt" viewBox="0 0 512 512" version="1.1" xmlns="http://www.w3.org/2000/svg">
<g id="#000000ff">
<path fill="#000000" opacity="1.00" d=" M 108.52 101.75 C 145.67 65.85 196.36 44.31 248.02 42.76 C 302.58 40.27 357.68 60.22 398.26 96.72 C 415.40 112.10 430.26 130.15 441.51 150.28 C 441.55 150.36 441.64 150.51 441.68 150.58 C 459.52 181.25 468.75 216.63 469.48 252.03 C 469.78 261.56 470.14 271.74 465.20 280.29 C 459.37 291.27 447.44 298.50 435.05 298.85 C 400.16 298.98 365.26 298.79 330.37 298.96 C 334.32 320.64 338.61 342.25 342.66 363.90 C 345.94 381.36 344.23 399.85 337.00 416.14 C 328.13 436.69 311.17 453.62 290.57 462.39 C 271.90 470.42 250.45 471.63 230.95 465.97 C 211.76 460.47 194.64 448.14 183.21 431.78 C 169.86 412.92 164.26 388.67 168.43 365.91 C 172.62 343.55 177.27 321.27 181.39 298.90 C 146.94 299.02 112.49 298.93 78.03 298.97 C 71.57 298.86 65.05 297.15 59.58 293.65 C 59.51 293.61 59.37 293.52 59.30 293.48 C 51.34 288.77 45.59 280.61 43.42 271.65 C 41.30 261.52 42.78 251.15 43.02 240.93 C 46.39 188.52 70.43 137.86 108.52 101.75 M 157.11 79.08 C 120.61 99.49 90.53 131.41 72.84 169.35 C 87.43 163.70 103.53 161.94 118.94 164.81 C 135.51 167.83 151.04 176.13 162.80 188.18 C 177.81 203.38 186.61 224.61 186.35 246.00 C 186.48 260.70 182.34 275.33 174.92 287.99 C 195.50 288.02 216.07 287.98 236.65 288.01 C 234.46 279.52 234.09 270.54 235.98 261.96 C 239.22 246.02 250.03 231.89 264.49 224.48 C 274.09 219.45 285.20 217.49 295.96 218.68 C 312.54 220.38 328.00 230.25 336.67 244.47 C 344.65 257.28 346.98 273.42 342.95 287.97 C 371.63 288.04 400.31 287.97 428.98 288.01 C 432.71 288.00 436.51 288.16 440.15 287.21 C 447.84 285.27 454.38 279.40 457.10 271.95 C 459.22 266.55 458.61 260.66 458.63 254.99 C 458.57 242.20 457.25 229.44 454.90 216.87 C 445.38 222.42 434.95 226.56 424.00 228.11 C 404.37 231.26 383.68 226.82 366.99 216.04 C 352.81 206.98 341.53 193.47 335.16 177.89 C 328.42 161.55 327.15 143.03 331.63 125.93 C 336.00 108.71 346.24 93.19 360.02 82.04 C 329.94 63.93 295.04 53.99 259.95 53.39 C 224.20 52.63 188.28 61.53 157.11 79.08 M 340.08 155.05 C 342.25 174.46 352.88 192.68 368.56 204.28 C 382.29 214.60 399.83 219.68 416.95 218.29 C 429.61 217.42 441.86 212.92 452.37 205.87 C 440.51 158.21 410.24 115.74 369.73 88.13 C 348.56 102.77 336.82 129.55 340.08 155.05 M 66.51 184.55 C 56.34 209.93 52.63 237.66 53.40 264.92 C 53.87 277.15 64.77 287.78 77.01 287.97 C 105.40 288.08 133.79 287.91 162.18 288.05 C 173.47 272.71 178.05 252.70 174.85 233.95 C 171.89 215.84 161.58 199.10 146.82 188.21 C 124.08 170.82 90.72 169.29 66.51 184.55 M 277.00 230.77 C 265.25 234.24 255.15 242.86 249.83 253.89 C 244.66 264.41 243.93 276.99 247.82 288.04 C 275.85 287.95 303.89 288.02 331.92 288.00 C 338.17 270.38 331.97 249.28 316.94 238.09 C 305.84 229.40 290.47 226.63 277.00 230.77 M 179.43 365.91 C 176.16 382.18 178.33 399.48 185.56 414.42 C 193.25 430.52 206.63 443.84 222.82 451.36 C 241.16 460.02 262.94 460.96 282.00 454.07 C 297.53 448.56 311.10 437.85 320.25 424.17 C 329.36 410.70 334.05 394.30 333.38 378.04 C 333.16 370.62 331.45 363.36 330.11 356.09 C 326.47 336.96 322.81 317.83 319.18 298.70 C 277.00 298.60 234.83 298.87 192.65 298.73 C 188.08 321.09 183.84 343.52 179.43 365.91 Z" />
<path fill="#000000" opacity="1.00" d=" M 227.14 78.20 C 235.96 76.74 245.26 77.83 253.30 81.82 C 264.56 87.24 273.15 97.87 276.04 110.02 C 279.20 122.70 276.08 136.75 267.80 146.86 C 260.36 156.15 248.89 162.09 236.98 162.61 C 225.57 163.34 214.05 159.08 205.69 151.31 C 198.62 144.74 193.83 135.72 192.54 126.14 C 190.79 114.65 194.16 102.54 201.43 93.51 C 207.79 85.54 217.10 80.00 227.14 78.20 M 228.53 88.70 C 214.28 91.24 202.91 104.51 202.70 119.01 C 201.94 133.07 211.71 146.72 225.18 150.70 C 238.01 154.88 253.08 149.80 260.75 138.70 C 268.07 128.69 268.67 114.37 262.22 103.78 C 255.63 92.33 241.48 85.97 228.53 88.70 Z" />
</g>
<g id="#dc3e3eff">
<path fill="#dc3e3e" opacity="1.00" d=" M 157.11 79.08 C 188.28 61.53 224.20 52.63 259.95 53.39 C 295.04 53.99 329.94 63.93 360.02 82.04 C 346.24 93.19 336.00 108.71 331.63 125.93 C 327.15 143.03 328.42 161.55 335.16 177.89 C 341.53 193.47 352.81 206.98 366.99 216.04 C 383.68 226.82 404.37 231.26 424.00 228.11 C 434.95 226.56 445.38 222.42 454.90 216.87 C 457.25 229.44 458.57 242.20 458.63 254.99 C 458.61 260.66 459.22 266.55 457.10 271.95 C 454.38 279.40 447.84 285.27 440.15 287.21 C 436.51 288.16 432.71 288.00 428.98 288.01 C 400.31 287.97 371.63 288.04 342.95 287.97 C 346.98 273.42 344.65 257.28 336.67 244.47 C 328.00 230.25 312.54 220.38 295.96 218.68 C 285.20 217.49 274.09 219.45 264.49 224.48 C 250.03 231.89 239.22 246.02 235.98 261.96 C 234.09 270.54 234.46 279.52 236.65 288.01 C 216.07 287.98 195.50 288.02 174.92 287.99 C 182.34 275.33 186.48 260.70 186.35 246.00 C 186.61 224.61 177.81 203.38 162.80 188.18 C 151.04 176.13 135.51 167.83 118.94 164.81 C 103.53 161.94 87.43 163.70 72.84 169.35 C 90.53 131.41 120.61 99.49 157.11 79.08 M 227.14 78.20 C 217.10 80.00 207.79 85.54 201.43 93.51 C 194.16 102.54 190.79 114.65 192.54 126.14 C 193.83 135.72 198.62 144.74 205.69 151.31 C 214.05 159.08 225.57 163.34 236.98 162.61 C 248.89 162.09 260.36 156.15 267.80 146.86 C 276.08 136.75 279.20 122.70 276.04 110.02 C 273.15 97.87 264.56 87.24 253.30 81.82 C 245.26 77.83 235.96 76.74 227.14 78.20 Z" />
<path fill="#dc3e3e" opacity="1.00" d=" M 441.51 150.28 C 441.55 150.36 441.64 150.51 441.68 150.58 C 441.64 150.51 441.55 150.36 441.51 150.28 Z" />
<path fill="#dc3e3e" opacity="1.00" d=" M 59.30 293.48 C 59.37 293.52 59.51 293.61 59.58 293.65 C 59.51 293.61 59.37 293.52 59.30 293.48 Z" />
</g>
<g id="#ebebebff">
<path fill="#ebebeb" opacity="1.00" d=" M 228.53 88.70 C 241.48 85.97 255.63 92.33 262.22 103.78 C 268.67 114.37 268.07 128.69 260.75 138.70 C 253.08 149.80 238.01 154.88 225.18 150.70 C 211.71 146.72 201.94 133.07 202.70 119.01 C 202.91 104.51 214.28 91.24 228.53 88.70 Z" />
<path fill="#ebebeb" opacity="1.00" d=" M 340.08 155.05 C 336.82 129.55 348.56 102.77 369.73 88.13 C 410.24 115.74 440.51 158.21 452.37 205.87 C 441.86 212.92 429.61 217.42 416.95 218.29 C 399.83 219.68 382.29 214.60 368.56 204.28 C 352.88 192.68 342.25 174.46 340.08 155.05 Z" />
<path fill="#ebebeb" opacity="1.00" d=" M 66.51 184.55 C 90.72 169.29 124.08 170.82 146.82 188.21 C 161.58 199.10 171.89 215.84 174.85 233.95 C 178.05 252.70 173.47 272.71 162.18 288.05 C 133.79 287.91 105.40 288.08 77.01 287.97 C 64.77 287.78 53.87 277.15 53.40 264.92 C 52.63 237.66 56.34 209.93 66.51 184.55 Z" />
<path fill="#ebebeb" opacity="1.00" d=" M 277.00 230.77 C 290.47 226.63 305.84 229.40 316.94 238.09 C 331.97 249.28 338.17 270.38 331.92 288.00 C 303.89 288.02 275.85 287.95 247.82 288.04 C 243.93 276.99 244.66 264.41 249.83 253.89 C 255.15 242.86 265.25 234.24 277.00 230.77 Z" />
<path fill="#ebebeb" opacity="1.00" d=" M 179.43 365.91 C 183.84 343.52 188.08 321.09 192.65 298.73 C 234.83 298.87 277.00 298.60 319.18 298.70 C 322.81 317.83 326.47 336.96 330.11 356.09 C 331.45 363.36 333.16 370.62 333.38 378.04 C 334.05 394.30 329.36 410.70 320.25 424.17 C 311.10 437.85 297.53 448.56 282.00 454.07 C 262.94 460.96 241.16 460.02 222.82 451.36 C 206.63 443.84 193.25 430.52 185.56 414.42 C 178.33 399.48 176.16 382.18 179.43 365.91 Z" />
</g>
</svg>
